<svg width="490" height="73" viewBox="0 0 490 73" fill="none" xmlns="http://www.w3.org/2000/svg">
    <path d="M489.94 72.11H472.09C469.75 72.11 467.72 71.27 466.07 69.62L441.47 45.02H435.76V72.1H419.05V1.22998H474.79C477.54 1.22998 480.11 1.91998 482.41 3.26998C484.7 4.61998 486.55 6.45998 487.89 8.74998C489.24 11.04 489.93 13.6 489.93 16.37V29.9C489.93 32.65 489.24 35.22 487.89 37.52C486.54 39.8 484.7 41.64 482.41 42.98C480.11 44.33 477.54 45.02 474.79 45.02H465.08L475.44 55.4H489.92V72.11H489.94ZM432.6 41.85H442.8L468.33 67.37C469.38 68.42 470.61 68.93 472.1 68.93H486.77V58.57H474.15L457.45 41.84H474.81C477.02 41.84 478.99 41.32 480.82 40.24C482.64 39.17 484.11 37.71 485.17 35.91C486.24 34.08 486.77 32.11 486.77 29.9V16.37C486.77 14.18 486.23 12.15 485.17 10.36C484.1 8.53998 482.64 7.06998 480.82 5.99998C478.99 4.91998 477.02 4.39998 474.81 4.39998H422.25V68.93H432.61V41.85H432.6ZM401.61 72.11H360.99C358.24 72.11 355.67 71.42 353.37 70.07C351.09 68.72 349.26 66.89 347.91 64.61C346.56 62.3 345.87 59.74 345.87 56.99V16.37C345.87 13.6 346.56 11.04 347.91 8.74998C349.25 6.45998 351.09 4.61998 353.37 3.26998C355.68 1.91998 358.24 1.22998 360.99 1.22998H401.61C404.36 1.22998 406.93 1.91998 409.23 3.26998C411.52 4.61998 413.37 6.45998 414.71 8.74998C416.06 11.04 416.75 13.6 416.75 16.37V56.99C416.75 59.69 416.06 62.22 414.71 64.53C413.37 66.8 411.54 68.65 409.29 70.02C407.03 71.41 404.44 72.11 401.61 72.11ZM360.99 4.39998C358.81 4.39998 356.78 4.93998 354.97 5.99998C353.17 7.06998 351.71 8.52998 350.64 10.35C349.58 12.15 349.04 14.17 349.04 16.36V56.99C349.04 59.17 349.58 61.2 350.64 63.01C351.71 64.82 353.17 66.27 354.97 67.34C356.78 68.4 358.8 68.94 360.98 68.94H401.6C403.84 68.94 405.87 68.39 407.63 67.31C409.44 66.21 410.9 64.73 411.97 62.92C413.04 61.09 413.57 59.15 413.57 56.99V16.37C413.57 14.18 413.03 12.15 411.97 10.36C410.9 8.53998 409.44 7.06998 407.62 6.00998C405.81 4.94998 403.79 4.40998 401.61 4.40998H360.99V4.39998ZM343.55 72.1H287.79C285.04 72.1 282.47 71.41 280.17 70.06C277.89 68.71 276.05 66.88 274.71 64.6C273.36 62.29 272.67 59.73 272.67 56.98V1.22998H289.38V55.4H343.55V72.11V72.1ZM275.85 4.39998V56.99C275.85 59.17 276.39 61.2 277.45 63.01C278.52 64.81 279.97 66.27 281.78 67.34C283.61 68.41 285.58 68.94 287.79 68.94H340.37V58.58H286.2V4.39998H275.84H275.85ZM216.18 72.1H199.47V1.22998H255.21C257.96 1.22998 260.53 1.91998 262.83 3.26998C265.12 4.61998 266.97 6.45998 268.31 8.74998C269.66 11.04 270.35 13.6 270.35 16.37V29.9C270.35 32.65 269.66 35.22 268.31 37.52C266.96 39.8 265.12 41.64 262.83 42.98C260.53 44.33 257.96 45.02 255.21 45.02H216.18V72.1ZM202.65 68.93H213.01V41.85H255.21C257.42 41.85 259.39 41.33 261.22 40.25C263.04 39.18 264.51 37.72 265.57 35.92C266.64 34.09 267.17 32.12 267.17 29.91V16.38C267.17 14.19 266.63 12.16 265.57 10.37C264.5 8.54998 263.04 7.07998 261.22 6.01998C259.39 4.93998 257.42 4.41998 255.21 4.41998H202.65V68.93ZM403.19 58.57H359.4V14.78H403.19V58.57ZM362.57 55.4H400.01V17.96H362.57V55.4ZM476.38 31.49H432.59V14.78H476.38V31.49ZM435.76 28.32H473.2V17.96H435.76V28.32ZM256.79 31.49H213V14.78H256.79V31.49ZM216.17 28.32H253.61V17.96H216.17V28.32Z" fill="#FF6100"/>
    <path d="M12.95 41.13V69.52H1V1.98999H41.94V11.24H13.95H12.95V12.24V30.07V31.07H13.95H35.16V40.13H13.95H12.95V41.13Z" fill="#000" stroke="#000" stroke-width="2"/>
    <path d="M66.129 65.7677L66.1283 65.7674C60.835 62.8051 56.6528 58.6919 53.5513 53.4321C50.4604 48.1901 48.9099 42.2385 48.9099 35.56C48.9099 28.8844 50.459 23.0322 53.5513 17.7879C56.6528 12.5281 60.835 8.41492 66.1283 5.45264C71.4233 2.48936 77.2242 1 83.5699 1C89.9185 1 95.8075 2.4907 101.058 5.45081C106.314 8.42343 110.475 12.5265 113.536 17.7832C116.59 23.0283 118.13 28.9522 118.13 35.56C118.13 42.1705 116.589 48.1936 113.536 53.4363C110.465 58.6937 106.294 62.8058 101.011 65.7677C95.716 68.7308 89.9153 70.22 83.5699 70.22C77.2238 70.22 71.4133 68.7304 66.129 65.7677ZM95.1396 56.7903C98.5042 54.7969 101.121 51.9403 102.991 48.2633C104.864 44.5808 105.79 40.3407 105.79 35.56C105.79 30.78 104.864 26.5479 102.989 22.9026C101.117 19.2537 98.4981 16.4379 95.1336 14.4761C91.7714 12.5157 87.9131 11.55 83.5699 11.55C79.2268 11.55 75.3501 12.5156 71.9597 14.4741C68.565 16.435 65.9235 19.2511 64.0501 22.9036C62.1758 26.558 61.2499 30.7895 61.2499 35.56C61.2499 40.3305 62.1758 44.5806 64.0485 48.2633C65.92 51.9434 68.5592 54.8 71.9537 56.7924C75.3444 58.7826 79.223 59.77 83.5699 59.77C87.9169 59.77 91.7771 58.7825 95.1396 56.7903Z" fill="#000" stroke="#000" stroke-width="2"/>
    <path d="M155.441 46.5695L154.559 45.1956L153.736 46.6063L140.376 69.52H127.014L147.978 35.98L148.315 35.4416L147.97 34.9081L126.745 1.98999H140.405L155.15 24.8421L156.034 26.2134L156.855 24.8025L170.115 1.98999H183.477L162.612 35.4306L162.276 35.9679L162.619 36.5007L183.849 69.53H170.193L155.441 46.5695Z" fill="#000" stroke="#000" stroke-width="2"/>
</svg>
