<svg width="89" height="116" viewBox="0 0 89 116" fill="none" xmlns="http://www.w3.org/2000/svg">
    <path d="M86.5664 60.2858C88.8268 70.4667 88.3029 80.4608 83.8151 89.9457C76.8397 104.695 64.9955 113.129 48.9346 115.433C37.3725 117.092 26.3599 115.176 16.7285 108.26C5.20306 99.9911 -0.405804 88.5536 0.0228285 74.3281C0.162043 69.6681 1.43329 65.1949 3.32 60.9196C3.68636 60.0843 4.01974 59.238 4.36777 58.3917C4.78175 57.6774 5.19939 56.9666 5.61337 56.2559C9.96931 48.8336 15.721 42.6935 22.6818 37.6598C23.517 37.0553 24.334 36.2311 25.4624 36.9345C26.5871 37.6342 26.2207 38.6783 26.0192 39.7224C23.5207 52.4935 29.2505 64.0665 41.3108 70.6646C41.897 70.987 42.4905 71.3057 43.0986 71.5804C44.5603 72.2435 45.5898 73.2254 45.2637 74.9619C44.956 76.5922 43.7214 77.149 42.1974 77.3395C39.3838 77.6912 36.757 78.6401 34.2402 79.9333C24.3743 85.0073 24.4293 97.5402 29.8073 103.596C34.3171 108.67 42.5857 110.714 49.693 108.263C62.4384 103.867 67.6882 89.4988 60.8447 77.7132C59.775 75.8704 58.6027 74.09 57.0823 72.5733C56.8478 72.3095 56.6134 72.0457 56.3826 71.7856C52.9205 67.4443 48.6562 63.8577 44.9926 59.6996C40.8089 54.9517 37.0318 49.951 35.5188 43.679C33.1961 34.0329 35.7166 25.2661 40.7429 17.0232C41.2815 16.1439 41.8677 15.2903 42.4318 14.4257C43.7507 12.931 45.0732 11.44 46.3921 9.94524C50.6674 5.99595 55.2615 2.5156 60.7348 0.35778C62.9989 -0.536121 64.1126 0.251538 63.673 2.64749C62.1489 10.9271 63.8928 18.6168 67.6223 25.9952C67.8677 26.4787 68.0069 27.0136 68.1938 27.5228C68.2377 27.9039 68.5968 27.8636 68.8239 27.9991C70.1684 30.9812 71.9709 33.6812 73.9052 36.3007C74.0334 36.7769 74.2899 37.1653 74.6709 37.473C76.5869 40.4111 78.5103 43.3456 80.419 46.2874C82.5695 49.6029 84.2071 53.1712 85.6468 56.8384C85.9546 57.9888 86.2623 59.1354 86.57 60.2858H86.5664Z" fill="#FF6100"/>
    <path fill-rule="evenodd" clip-rule="evenodd" d="M84.3208 89.9518C88.8086 80.4669 89.3325 70.4728 87.0721 60.2919H87.0758C86.9219 59.7167 86.768 59.1424 86.6141 58.5682C86.4603 57.9939 86.3064 57.4197 86.1525 56.8445C84.7128 53.1773 83.0752 49.609 80.9247 46.2935C79.6526 44.333 78.374 42.3756 77.0955 40.4183C76.4556 39.4387 75.8157 38.4591 75.1766 37.4791C74.7956 37.1714 74.5392 36.783 74.4109 36.3067C72.4766 33.6874 70.6741 30.9873 69.3296 28.0052C69.2627 27.9653 69.1843 27.9406 69.106 27.9159C69.106 27.9159 68.7305 27.7977 68.6995 27.5289C68.641 27.3696 68.5872 27.2077 68.5334 27.0457C68.4151 26.69 68.2966 26.3335 68.128 26.0012C64.3985 18.6229 62.6547 10.9332 64.1787 2.65357C64.6183 0.257657 63.5046 -0.53001 61.2405 0.363869C55.7672 2.52169 51.1732 6.00205 46.8978 9.95134C46.2384 10.6987 45.578 11.4452 44.9177 12.1916C44.2573 12.938 43.597 13.6845 42.9375 14.4318C42.7617 14.7013 42.5837 14.9697 42.4057 15.2382C42.0126 15.831 41.6193 16.4241 41.2487 17.0293C39.8859 19.264 38.7074 21.5373 37.7597 23.8562C37.7984 23.7921 37.8373 23.728 37.8764 23.664C38.2164 23.1097 38.5771 22.5665 38.9377 22.0235C39.1009 21.7776 39.2642 21.5317 39.4255 21.2849C40.0283 20.6027 40.632 19.9213 41.2356 19.2399C41.8433 18.5539 42.451 17.8679 43.0579 17.1811C46.9793 13.5638 51.193 10.3761 56.2132 8.39966C58.2898 7.58091 59.3114 8.30235 58.9081 10.4968C57.5103 18.0804 59.1097 25.1236 62.5304 31.8817C62.6851 32.186 62.7938 32.5125 62.9023 32.8384C62.9517 32.9868 63.001 33.1351 63.0546 33.281C63.0831 33.5271 63.2553 33.5813 63.4275 33.6354C63.4994 33.658 63.5712 33.6806 63.6326 33.7172C64.8658 36.4486 66.519 38.9216 68.2932 41.3208C68.4109 41.757 68.6461 42.1127 68.9955 42.3946C69.5819 43.2924 70.1689 44.1899 70.756 45.0874C71.9286 46.8799 73.1011 48.6725 74.2677 50.468C76.2402 53.5048 77.7422 56.7731 79.0628 60.132C79.203 60.6553 79.3432 61.1778 79.4834 61.7003C79.6254 62.2297 79.7675 62.7592 79.9096 63.2895H79.9062C81.9795 72.6145 81.4989 81.7684 77.3827 90.456C70.9848 103.965 60.1212 111.69 45.3899 113.8C34.785 115.32 24.6842 113.566 15.8501 107.23C15.8181 107.207 15.786 107.184 15.754 107.161C16.2361 107.535 16.7295 107.904 17.2342 108.266C26.8656 115.183 37.8782 117.099 49.4403 115.439C65.5012 113.135 77.3454 104.701 84.3208 89.9518Z" fill="url(#paint0_linear_14_92)"/>
    <defs>
        <linearGradient id="paint0_linear_14_92" x1="52.0661" y1="0.00610352" x2="52.0661" y2="116" gradientUnits="userSpaceOnUse">
            <stop stop-color="#FF6100"/>
            <stop offset="1" stop-color="#540099" stop-opacity="0.5"/>
        </linearGradient>
    </defs>
</svg>
